<?xml version="1.0" encoding="UTF-8" standalone="no"?>
<!DOCTYPE svg PUBLIC "-//W3C//DTD SVG 1.1//EN"
 "http://www.w3.org/Graphics/SVG/1.1/DTD/svg11.dtd">
<!-- Generated by graphviz version 9.0.0 (20230911.1827)
 -->
<!-- Title: run_scheme Pages: 1 -->
<svg width="960pt" height="1151pt"
 viewBox="0.00 0.00 960.25 1151.39" xmlns="http://www.w3.org/2000/svg" xmlns:xlink="http://www.w3.org/1999/xlink">
<g id="graph0" class="graph" transform="scale(1 1) rotate(0) translate(4 1147.39)">
<title>run_scheme</title>
<polygon fill="white" stroke="none" points="-4,4 -4,-1147.39 956.25,-1147.39 956.25,4 -4,4"/>
<g id="clust1" class="cluster">
<title>foreach_active_player</title>
<polygon fill="cornsilk" stroke="black" points="27,-1033.39 27,-1135.39 313,-1135.39 313,-1033.39 27,-1033.39"/>
<text text-anchor="start" x="78.12" y="-1119.09" font-family="Handlee" font-weight="bold" font-size="14.00">Run preturn moves for all players</text>
<text text-anchor="start" x="77.75" y="-1091.09" font-family="Handlee" font-size="14.00">Foreach active player  </text>
<text text-anchor="start" x="201.5" y="-1091.09" font-family="Monaco" font-size="11.00">:= player</text>
</g>
<g id="clust2" class="cluster">
<title>foreach_roll</title>
<polygon fill="cornsilk" stroke="black" points="541,-301.39 541,-715.39 903,-715.39 903,-301.39 541,-301.39"/>
<text text-anchor="start" x="676.25" y="-698.09" font-family="Handlee" font-size="14.00">Foreach dice roll</text>
</g>
<!-- start -->
<g id="node1" class="node">
<title>start</title>
<ellipse fill="lawngreen" stroke="black" cx="463" cy="-332.89" rx="69.65" ry="18.38"/>
<text text-anchor="start" x="421.75" y="-328.59" font-family="Monaco" font-size="14.00">self.run()</text>
</g>
<!-- exit_loop_cond -->
<g id="node2" class="node">
<title>exit_loop_cond</title>
<polygon fill="none" stroke="black" points="423,-272.39 265.25,-225.39 423,-178.39 580.75,-225.39 423,-272.39"/>
<text text-anchor="start" x="396" y="-232.59" font-family="Handlee" font-size="14.00">Exit loop?</text>
<text text-anchor="start" x="352.12" y="-207.44" font-family="Monaco" font-size="11.00">self.exit_condition()</text>
</g>
<!-- start&#45;&gt;exit_loop_cond -->
<g id="edge6" class="edge">
<title>start&#45;&gt;exit_loop_cond</title>
<path fill="none" stroke="black" d="M456.39,-314.47C452.65,-304.59 447.75,-291.66 442.85,-278.76"/>
<polygon fill="black" stroke="black" points="446.13,-277.52 439.31,-269.41 439.58,-280 446.13,-277.52"/>
</g>
<!-- save_data -->
<g id="node3" class="node">
<title>save_data</title>
<polygon fill="none" stroke="black" points="468.12,-122.89 377.88,-122.89 377.88,-75.89 468.12,-75.89 468.12,-122.89"/>
<text text-anchor="start" x="395.62" y="-106.59" font-family="Handlee" font-size="14.00">Save data</text>
<text text-anchor="start" x="385.88" y="-81.44" font-family="Monaco" font-size="11.00">self.save()</text>
</g>
<!-- exit_loop_cond&#45;&gt;save_data -->
<g id="edge9" class="edge">
<title>exit_loop_cond&#45;&gt;save_data</title>
<path fill="none" stroke="black" d="M423,-178.22C423,-163.73 423,-148.01 423,-134.52"/>
<polygon fill="black" stroke="black" points="426.5,-134.83 423,-124.83 419.5,-134.83 426.5,-134.83"/>
<text text-anchor="middle" x="435.75" y="-147.09" font-family="Handlee" font-size="14.00"> &#160;Yes</text>
</g>
<!-- get_curr_plyr -->
<g id="node5" class="node">
<title>get_curr_plyr</title>
<polygon fill="none" stroke="black" points="279.88,-122.89 122.12,-122.89 122.12,-75.89 279.88,-75.89 279.88,-122.89"/>
<text text-anchor="start" x="148.88" y="-106.59" font-family="Handlee" font-size="14.00">Get current player</text>
<text text-anchor="start" x="130.12" y="-81.44" font-family="Monaco" font-size="11.00">self.get_player_idx()</text>
</g>
<!-- exit_loop_cond&#45;&gt;get_curr_plyr -->
<g id="edge7" class="edge">
<title>exit_loop_cond&#45;&gt;get_curr_plyr</title>
<path fill="none" stroke="black" d="M368.69,-194.06C333.06,-174.15 286.77,-148.3 251.85,-128.8"/>
<polygon fill="black" stroke="black" points="253.63,-125.78 243.19,-123.96 250.21,-131.89 253.63,-125.78"/>
<text text-anchor="middle" x="316.62" y="-147.09" font-family="Handlee" font-size="14.00"> &#160;No</text>
</g>
<!-- return -->
<g id="node4" class="node">
<title>return</title>
<ellipse fill="red" stroke="black" cx="423" cy="-19.45" rx="39.95" ry="19.45"/>
<text text-anchor="middle" x="423" y="-15.9" font-family="Handlee" font-size="14.00">Return</text>
</g>
<!-- save_data&#45;&gt;return -->
<g id="edge10" class="edge">
<title>save_data&#45;&gt;return</title>
<path fill="none" stroke="black" d="M423,-75.43C423,-67.7 423,-58.96 423,-50.76"/>
<polygon fill="black" stroke="black" points="426.5,-50.83 423,-40.83 419.5,-50.83 426.5,-50.83"/>
</g>
<!-- pre_exec -->
<g id="node6" class="node">
<title>pre_exec</title>
<polygon fill="aquamarine" stroke="black" points="287.12,-1077.39 34.88,-1077.39 34.88,-1041.39 287.12,-1041.39 287.12,-1077.39"/>
<text text-anchor="start" x="42.88" y="-1056.07" font-family="Monaco" font-size="11.00">self.execute_non_turn_moves(player)</text>
</g>
<!-- get_curr_plyr&#45;&gt;pre_exec -->
<g id="edge8" class="edge">
<title>get_curr_plyr&#45;&gt;pre_exec:sw</title>
<path fill="none" stroke="black" d="M121.85,-116.16C65.6,-132.51 0,-164.43 0,-224.39 0,-958.39 0,-958.39 0,-958.39 0,-993.99 5.63,-1009.19 27.1,-1032.24"/>
<polygon fill="black" stroke="black" points="17.34,-1030.4 27.71,-1032.6 20.98,-1024.42 17.34,-1030.4"/>
</g>
<!-- pre_exec&#45;&gt;pre_exec -->
<g id="edge1" class="edge">
<title>pre_exec:se&#45;&gt;pre_exec:ne</title>
<path fill="none" stroke="black" d="M287,-1041.39C293.12,-1032.27 305.12,-1032.27 305.12,-1059.39 305.12,-1074.22 301.54,-1080.95 297.28,-1082.5"/>
<polygon fill="black" stroke="black" points="298.87,-1079.38 288.36,-1078.06 295.75,-1085.65 298.87,-1079.38"/>
</g>
<!-- in_jail_cond -->
<g id="node7" class="node">
<title>in_jail_cond</title>
<polygon fill="none" stroke="black" points="267,-1004.39 35,-957.39 267,-910.39 499,-957.39 267,-1004.39"/>
<text text-anchor="start" x="225.75" y="-964.59" font-family="Handlee" font-size="14.00">Is player in jail?</text>
<text text-anchor="start" x="159" y="-939.44" font-family="Monaco" font-size="11.00">self.player_in_jail(curr player)</text>
</g>
<!-- pre_exec&#45;&gt;in_jail_cond -->
<g id="edge11" class="edge">
<title>pre_exec&#45;&gt;in_jail_cond</title>
<path fill="none" stroke="black" d="M179.46,-1040.97C190.37,-1030.68 204.74,-1017.13 218.67,-1003.98"/>
<polygon fill="black" stroke="black" points="220.82,-1006.77 225.69,-997.36 216.02,-1001.68 220.82,-1006.77"/>
</g>
<!-- get_out_of_jail_cond -->
<g id="node8" class="node">
<title>get_out_of_jail_cond</title>
<polygon fill="none" stroke="black" points="267,-854.89 28.25,-807.89 267,-760.89 505.75,-807.89 267,-854.89"/>
<text text-anchor="start" x="197.62" y="-815.09" font-family="Handlee" font-size="14.00">Did player get out of jail?</text>
<text text-anchor="start" x="155.62" y="-789.94" font-family="Monaco" font-size="11.00">self.get_out_of_jail(curr player)</text>
</g>
<!-- in_jail_cond&#45;&gt;get_out_of_jail_cond -->
<g id="edge12" class="edge">
<title>in_jail_cond&#45;&gt;get_out_of_jail_cond</title>
<path fill="none" stroke="black" d="M267,-910.13C267,-896.33 267,-881.03 267,-866.59"/>
<polygon fill="black" stroke="black" points="270.5,-866.76 267,-856.76 263.5,-866.76 270.5,-866.76"/>
<text text-anchor="middle" x="279.75" y="-879.09" font-family="Handlee" font-size="14.00"> &#160;Yes</text>
</g>
<!-- roll_dice_cond -->
<g id="node9" class="node">
<title>roll_dice_cond</title>
<polygon fill="none" stroke="black" points="673,-835.39 523.5,-807.89 673,-780.39 822.5,-807.89 673,-835.39"/>
<text text-anchor="start" x="606.25" y="-804.34" font-family="Handlee" font-size="14.00">Can player roll the dice?</text>
</g>
<!-- in_jail_cond&#45;&gt;roll_dice_cond -->
<g id="edge13" class="edge">
<title>in_jail_cond&#45;&gt;roll_dice_cond</title>
<path fill="none" stroke="black" d="M349.16,-926.54C427.35,-898.14 543.14,-856.07 613.01,-830.69"/>
<polygon fill="black" stroke="black" points="614.19,-833.98 622.39,-827.28 611.8,-827.4 614.19,-833.98"/>
<text text-anchor="middle" x="505.62" y="-879.09" font-family="Handlee" font-size="14.00"> &#160;No</text>
</g>
<!-- init_next_turn -->
<g id="node10" class="node">
<title>init_next_turn</title>
<polygon fill="none" stroke="black" points="375.12,-356.39 230.88,-356.39 230.88,-309.39 375.12,-309.39 375.12,-356.39"/>
<text text-anchor="start" x="253.12" y="-340.09" font-family="Handlee" font-size="14.00">Initialize next turn</text>
<text text-anchor="start" x="238.88" y="-314.94" font-family="Monaco" font-size="11.00">self.add_data_row()</text>
</g>
<!-- get_out_of_jail_cond&#45;&gt;init_next_turn -->
<g id="edge15" class="edge">
<title>get_out_of_jail_cond&#45;&gt;init_next_turn</title>
<path fill="none" stroke="black" d="M218.64,-769.91C188.72,-742.54 156,-702.33 156,-657.39 156,-657.39 156,-657.39 156,-438.39 156,-401.64 186.89,-376.63 220.36,-360.31"/>
<polygon fill="black" stroke="black" points="221.79,-363.5 229.42,-356.15 218.87,-357.14 221.79,-363.5"/>
<text text-anchor="middle" x="167.62" y="-546.34" font-family="Handlee" font-size="14.00"> &#160;No</text>
</g>
<!-- roll_dice_cond&#45;&gt;exit_loop_cond -->
<g id="edge14" class="edge">
<title>roll_dice_cond&#45;&gt;exit_loop_cond</title>
<path fill="none" stroke="black" d="M752.6,-794.64C827.75,-778.02 929,-740.25 929,-657.39 929,-657.39 929,-657.39 929,-331.89 929,-259.9 730.24,-236.71 581.87,-229.42"/>
<polygon fill="black" stroke="black" points="582.04,-225.93 571.89,-228.96 581.71,-232.92 582.04,-225.93"/>
<text text-anchor="middle" x="940.62" y="-491.09" font-family="Handlee" font-size="14.00"> &#160;No</text>
</g>
<!-- roll_dice_3times -->
<g id="node11" class="node">
<title>roll_dice_3times</title>
<polygon fill="none" stroke="black" points="507.38,-679.89 376.62,-679.89 376.62,-632.89 507.38,-632.89 507.38,-679.89"/>
<text text-anchor="start" x="396.25" y="-663.59" font-family="Handlee" font-size="14.00">Roll dice 3 times</text>
<text text-anchor="start" x="384.62" y="-638.44" font-family="Monaco" font-size="11.00">self.roll_dice(3)</text>
</g>
<!-- roll_dice_cond&#45;&gt;roll_dice_3times -->
<g id="edge17" class="edge">
<title>roll_dice_cond&#45;&gt;roll_dice_3times</title>
<path fill="none" stroke="black" d="M640.88,-786.1C600.8,-760.17 532.05,-715.67 486.81,-686.39"/>
<polygon fill="black" stroke="black" points="488.82,-683.52 478.52,-681.03 485.01,-689.4 488.82,-683.52"/>
<text text-anchor="middle" x="583.75" y="-729.59" font-family="Handlee" font-size="14.00"> &#160;Yes</text>
</g>
<!-- init_next_turn&#45;&gt;exit_loop_cond -->
<g id="edge16" class="edge">
<title>init_next_turn&#45;&gt;exit_loop_cond</title>
<path fill="none" stroke="black" d="M329.04,-309C342.53,-297.14 359.44,-282.27 375.18,-268.43"/>
<polygon fill="black" stroke="black" points="377.44,-271.1 382.64,-261.87 372.82,-265.85 377.44,-271.1"/>
</g>
<!-- all_3rolls_doubles -->
<g id="node12" class="node">
<title>all_3rolls_doubles</title>
<polygon fill="none" stroke="black" points="364,-577.39 197.25,-549.89 364,-522.39 530.75,-549.89 364,-577.39"/>
<text text-anchor="start" x="288.62" y="-546.34" font-family="Handlee" font-size="14.00">Are all 3 dice rolls doubles?</text>
</g>
<!-- roll_dice_3times&#45;&gt;all_3rolls_doubles -->
<g id="edge18" class="edge">
<title>roll_dice_3times&#45;&gt;all_3rolls_doubles</title>
<path fill="none" stroke="black" d="M424.88,-632.46C414.24,-618.19 400.37,-599.62 388.57,-583.8"/>
<polygon fill="black" stroke="black" points="391.58,-581.99 382.8,-576.07 385.97,-586.18 391.58,-581.99"/>
</g>
<!-- go_to_jail -->
<g id="node13" class="node">
<title>go_to_jail</title>
<polygon fill="none" stroke="black" points="450.5,-462.89 245.5,-462.89 245.5,-415.89 450.5,-415.89 450.5,-462.89"/>
<text text-anchor="start" x="322.88" y="-446.59" font-family="Handlee" font-size="14.00">Go to jail</text>
<text text-anchor="start" x="253.5" y="-421.44" font-family="Monaco" font-size="11.00">self.go_to_jail(curr player)</text>
</g>
<!-- all_3rolls_doubles&#45;&gt;go_to_jail -->
<g id="edge19" class="edge">
<title>all_3rolls_doubles&#45;&gt;go_to_jail</title>
<path fill="none" stroke="black" d="M360.13,-522.63C357.99,-508.13 355.31,-489.97 353.02,-474.4"/>
<polygon fill="black" stroke="black" points="356.49,-473.99 351.57,-464.6 349.57,-475.01 356.49,-473.99"/>
<text text-anchor="middle" x="369.75" y="-491.09" font-family="Handlee" font-size="14.00"> &#160;Yes</text>
</g>
<!-- record_dice_values1 -->
<g id="node14" class="node">
<title>record_dice_values1</title>
<polygon fill="aquamarine" stroke="black" points="828,-679.89 596,-679.89 596,-632.89 828,-632.89 828,-679.89"/>
<text text-anchor="start" x="659.88" y="-663.59" font-family="Handlee" font-size="14.00">Record dice values</text>
<text text-anchor="start" x="604" y="-638.44" font-family="Monaco" font-size="11.00">self.set_dice_value(dice values)</text>
</g>
<!-- all_3rolls_doubles&#45;&gt;record_dice_values1 -->
<g id="edge21" class="edge">
<title>all_3rolls_doubles&#45;&gt;record_dice_values1</title>
<path fill="none" stroke="black" d="M421.84,-568.26C452.04,-577.33 490.84,-588.98 530.18,-600.79"/>
<polygon fill="black" stroke="black" points="528.97,-604.08 539.55,-603.61 530.98,-597.38 528.97,-604.08"/>
<text text-anchor="middle" x="577.62" y="-601.59" font-family="Handlee" font-size="14.00">No</text>
</g>
<!-- go_to_jail&#45;&gt;init_next_turn -->
<g id="edge20" class="edge">
<title>go_to_jail&#45;&gt;init_next_turn</title>
<path fill="none" stroke="black" d="M338.12,-415.46C332.03,-401.3 324.1,-382.9 317.33,-367.16"/>
<polygon fill="black" stroke="black" points="320.62,-365.96 313.45,-358.16 314.19,-368.73 320.62,-365.96"/>
</g>
<!-- move_n_evaluate -->
<g id="node15" class="node">
<title>move_n_evaluate</title>
<polygon fill="none" stroke="black" points="875.25,-573.39 548.75,-573.39 548.75,-526.39 875.25,-526.39 875.25,-573.39"/>
<text text-anchor="start" x="618.25" y="-557.09" font-family="Handlee" font-size="14.00">Move player and evaluate position</text>
<text text-anchor="start" x="556.75" y="-531.94" font-family="Monaco" font-size="11.00">self.move_and_evaluate(curr player, num steps)</text>
</g>
<!-- record_dice_values1&#45;&gt;move_n_evaluate -->
<g id="edge2" class="edge">
<title>record_dice_values1&#45;&gt;move_n_evaluate</title>
<path fill="none" stroke="black" d="M712,-632.46C712,-618.57 712,-600.61 712,-585.07"/>
<polygon fill="black" stroke="black" points="715.5,-585.28 712,-575.28 708.5,-585.28 715.5,-585.28"/>
</g>
<!-- double_cond -->
<g id="node16" class="node">
<title>double_cond</title>
<polygon fill="none" stroke="black" points="712,-466.89 587.25,-439.39 712,-411.89 836.75,-439.39 712,-466.89"/>
<text text-anchor="start" x="657.62" y="-435.84" font-family="Handlee" font-size="14.00">Is dice roll a double?</text>
</g>
<!-- move_n_evaluate&#45;&gt;double_cond -->
<g id="edge3" class="edge">
<title>move_n_evaluate&#45;&gt;double_cond</title>
<path fill="none" stroke="black" d="M712,-526.15C712,-512.34 712,-494.38 712,-478.46"/>
<polygon fill="black" stroke="black" points="715.5,-478.84 712,-468.84 708.5,-478.84 715.5,-478.84"/>
</g>
<!-- double_cond&#45;&gt;init_next_turn -->
<g id="edge22" class="edge">
<title>double_cond&#45;&gt;init_next_turn</title>
<path fill="none" stroke="black" d="M653.82,-424.33C590.47,-408.91 485.89,-383.14 386.27,-356.96"/>
<polygon fill="black" stroke="black" points="387.42,-353.65 376.86,-354.49 385.64,-360.42 387.42,-353.65"/>
<text text-anchor="middle" x="538.62" y="-380.59" font-family="Handlee" font-size="14.00"> &#160;No</text>
</g>
<!-- init_next_turn_sp -->
<g id="node17" class="node">
<title>init_next_turn_sp</title>
<polygon fill="none" stroke="black" points="858.25,-356.39 639.75,-356.39 639.75,-309.39 858.25,-309.39 858.25,-356.39"/>
<text text-anchor="start" x="699.12" y="-340.09" font-family="Handlee" font-size="14.00">Initialize next turn</text>
<text text-anchor="start" x="647.75" y="-314.94" font-family="Monaco" font-size="11.00">self.add_data_row(same player)</text>
</g>
<!-- double_cond&#45;&gt;init_next_turn_sp -->
<g id="edge4" class="edge">
<title>double_cond&#45;&gt;init_next_turn_sp</title>
<path fill="none" stroke="black" d="M720.86,-413.36C725.73,-399.6 731.84,-382.34 737.13,-367.43"/>
<polygon fill="black" stroke="black" points="740.42,-368.6 740.46,-358.01 733.82,-366.26 740.42,-368.6"/>
<text text-anchor="middle" x="745.75" y="-380.59" font-family="Handlee" font-size="14.00"> &#160;Yes</text>
</g>
<!-- init_next_turn_sp&#45;&gt;record_dice_values1 -->
<g id="edge5" class="edge">
<title>init_next_turn_sp&#45;&gt;record_dice_values1</title>
<path fill="none" stroke="black" d="M786.53,-356.57C806.61,-370.37 830.35,-389.61 846,-411.89 847.6,-414.16 912.34,-533.42 884,-577.39 869.25,-600.28 845.96,-616.53 821.23,-628.03"/>
<polygon fill="black" stroke="black" points="820.1,-624.71 812.34,-631.92 822.9,-631.13 820.1,-624.71"/>
</g>
</g>
</svg>
